<svg xmlns="http://www.w3.org/2000/svg" viewBox="0 0 320 320">
  <g fill="none" stroke="#C9A24A" stroke-width="1.4" stroke-linecap="round" stroke-linejoin="round" opacity="0.16">
    <g transform="translate(38,26)">
      <path d="M30,20 C10,0 -10,10 0,30 C10,45 25,35 30,20 Z"/>
      <path d="M30,20 C50,0 70,10 60,30 C50,45 35,35 30,20 Z"/>
      <path d="M30,20 C25,35 15,55 5,72"/>
      <path d="M30,20 C35,35 45,55 55,72"/>
      <ellipse cx="30" cy="20" rx="7" ry="6"/>
    </g>

    <g transform="translate(220,60)">
      <ellipse cx="0" cy="-14" rx="6" ry="9"/>
      <ellipse cx="12" cy="-6" rx="6" ry="9" transform="rotate(72 12 -6)"/>
      <ellipse cx="8" cy="9" rx="6" ry="9" transform="rotate(144 8 9)"/>
      <ellipse cx="-8" cy="9" rx="6" ry="9" transform="rotate(216 -8 9)"/>
      <ellipse cx="-12" cy="-6" rx="6" ry="9" transform="rotate(288 -12 -6)"/>
      <circle cx="0" cy="0" r="3"/>
      <path d="M0,20 C-2,45 -6,60 -10,80"/>
      <ellipse cx="-14" cy="55" rx="4" ry="9" transform="rotate(-30 -14 55)"/>
      <ellipse cx="-6" cy="70" rx="4" ry="9" transform="rotate(20 -6 70)"/>
    </g>

    <g transform="translate(72,230)">
      <ellipse cx="0" cy="0" rx="34" ry="8"/>
      <path d="M-20,0 C-20,10 20,10 20,0"/>
      <path d="M0,8 L0,26"/>
      <ellipse cx="0" cy="30" rx="14" ry="4"/>
      <path d="M-10,30 C-10,36 10,36 10,30"/>
      <ellipse cx="-6" cy="-7" rx="8" ry="5"/>
      <ellipse cx="7" cy="-9" rx="7" ry="5"/>
      <ellipse cx="1" cy="-11" rx="6" ry="4"/>
    </g>

    <g transform="translate(255,225)">
      <path d="M12,10 C-2,-4 -18,4 -10,18 C-2,30 8,22 12,10 Z"/>
      <path d="M12,10 C26,-4 42,4 34,18 C26,30 16,22 12,10 Z"/>
      <path d="M12,10 C9,20 4,32 -2,42"/>
      <path d="M12,10 C15,20 20,32 26,42"/>
      <ellipse cx="12" cy="10" rx="4" ry="3.5"/>
    </g>
  </g>

  <g fill="#C9A24A" stroke="none" opacity="0.2">
    <path d="M270,60 L273,68 L281,71 L273,74 L270,82 L267,74 L259,71 L267,68 Z"/>
    <path d="M108,140 L110,145 L115,147 L110,149 L108,154 L106,149 L101,147 L106,145 Z"/>
    <path d="M40,170 L43,178 L51,181 L43,184 L40,192 L37,184 L29,181 L37,178 Z"/>
    <path d="M175,150 L177,155 L182,157 L177,159 L175,164 L173,159 L168,157 L173,155 Z"/>
    <path d="M300,290 L302,295 L307,297 L302,299 L300,304 L298,299 L293,297 L298,295 Z"/>
    <path d="M150,270 L153,278 L161,281 L153,284 L150,292 L147,284 L139,281 L147,278 Z"/>
  </g>
</svg>
